# xmcd
#
# Track frame offsets: 
#        150
#        21738
#        43077
#        63356
#        83121
#        99158
#        115497
#        130785
#        149978
#        166592
#        184733
#        201173
#        219199
#        235890
#
# Disc length: 3415 seconds
#
# Revision: 0
# Processed by: cddbd v1.4b42PL1 Copyright (c) Steve Scherf et al.
# Submitted via: ExactAudioCopy v0.90a11
#
DISCID=c80d550e
DTITLE=Rick and Renner - E Dez, E Cem, E Mil
DYEAR=1900
DGENRE=
TTITLE0=E Dez, E Cem, E MiL
TTITLE1=Chamei Seu Nome
TTITLE2=O amor e Eu
TTITLE3=Relax
TTITLE4=Fica Amor, Ta cedo
TTITLE5=Nao choro mais
TTITLE6=Cachaca
TTITLE7=Sem Direcao
TTITLE8=Se voce nao voltar
TTITLE9=Sentimento Alado
TTITLE10=Escolta de vagalumes
TTITLE11=Prazer e Adeus
TTITLE12=Minha Luz
TTITLE13=Filha
EXTD=
EXTT0=
EXTT1=
EXTT2=
EXTT3=
EXTT4=
EXTT5=
EXTT6=
EXTT7=
EXTT8=
EXTT9=
EXTT10=
EXTT11=
EXTT12=
EXTT13=
PLAYORDER=
